<svg xmlns="http://www.w3.org/2000/svg" viewBox="0 0 1036.15 1092.73"><defs><style>.cls-1{fill:#0f57ea;}.cls-2{fill:#ff1c26;}.cls-3{fill:#fff;}</style></defs><title>Asset 4nyxl</title><g id="Layer_2" data-name="Layer 2"><g id="Layer_1-2" data-name="Layer 1"><polygon class="cls-1" points="577.08 426.51 859.12 144.47 741.1 144.47 518.07 367.5 295.05 144.47 177.03 144.47 459.06 426.51 177.03 708.55 295.05 708.55 518.07 485.52 741.1 708.55 859.12 708.55 577.08 426.51"/><polygon class="cls-1" points="813.12 426.51 1036.15 203.48 1036.15 144.47 977.14 144.47 695.1 426.51 977.14 708.55 1036.15 708.55 1036.15 649.54 813.12 426.51"/><polygon class="cls-1" points="931.14 426.51 1036.15 531.52 1036.15 321.5 931.14 426.51"/><polygon class="cls-1" points="59.01 144.47 0 144.47 0 203.48 223.03 426.51 0 649.54 0 708.55 59.01 708.55 341.05 426.51 59.01 144.47"/><polygon class="cls-1" points="0 321.5 0 531.52 105.01 426.51 0 321.5"/><polygon class="cls-1" points="413.06 708.55 623.08 708.55 518.07 603.54 413.06 708.55"/><polygon class="cls-1" points="623.08 144.47 413.06 144.47 518.07 249.48 623.08 144.47"/><polygon class="cls-2" points="329.97 61.5 317.92 61.5 311.45 31.54 311.45 61.5 300.31 61.5 300.31 0.38 312.35 0.38 318.83 31.84 318.83 0.38 329.97 0.38 329.97 61.5"/><polygon class="cls-2" points="378.74 61.5 358.2 61.5 358.2 0.38 378.74 0.38 378.74 10.31 371.14 10.31 371.14 22.96 378.74 22.96 378.74 32.89 371.14 32.89 371.14 51.56 378.74 51.56 378.74 61.5"/><polygon class="cls-2" points="455.69 0.38 448.02 61.5 434.32 61.5 431.23 24.77 428.15 61.5 414.45 61.5 406.77 0.38 418.96 0.38 421.9 38.84 425.36 0.38 437.1 0.38 440.56 38.84 443.5 0.38 455.69 0.38"/><polygon class="cls-2" points="561.3 0.38 552.79 37.26 552.79 61.5 539.1 61.5 539.1 37.26 530.59 0.38 542.79 0.38 545.95 23.93 549.11 0.38 561.3 0.38"/><path class="cls-2" d="M605.22,49.91v-38a1.69,1.69,0,0,0-1.88-2c-1.26,0-1.88.65-1.88,2v38c0,1.3.62,2,1.88,2a1.69,1.69,0,0,0,1.88-2m12.95.15q0,7.44-2.49,9.48Q613,61.8,603.34,61.8t-12.2-2.18q-2.62-2.19-2.63-9.56V11.74q0-7.36,2.63-9.55T603.34,0Q613,0,615.68,2.26c1.66,1.35,2.49,4.52,2.49,9.48Z"/><path class="cls-2" d="M663.09,23.86V12.8c0-1.66-.68-2.49-2-2.49h-1.74V26h1.74c1.35,0,2-.7,2-2.11M676,61.5H663.09v-22c0-1.66-.68-2.49-2-2.49h-1.74V61.5H646.38V.38h16c5.51,0,9.13.7,10.83,2.1Q676,4.75,676,12.12V22.81q0,7.9-5.8,8.88Q676,33.35,676,41Z"/><polygon class="cls-2" points="735.84 61.5 722.81 61.5 716.57 32.22 716.57 61.5 704.22 61.5 704.22 0.38 716.57 0.38 716.57 24.99 721.46 0.38 734.26 0.38 727.56 27.85 735.84 61.5"/><path class="cls-3" d="M595.58,813.52A21.48,21.48,0,0,1,617.06,792h68.72a21.48,21.48,0,0,1,21.47,21.48v77.81H660V839.28a4.31,4.31,0,0,0-4.3-4.29h-8.59a4.3,4.3,0,0,0-4.29,4.3v42c0,4.22-.36,5.72,2.32,9.19l55.66,72.15c3,4.29,6.44,8.59,6.44,17.18v91.38a21.47,21.47,0,0,1-21.47,21.47H617.06a21.48,21.48,0,0,1-21.48-21.47v-85.9h47.25v60.13a4.31,4.31,0,0,0,4.29,4.3h8.59a4.32,4.32,0,0,0,4.3-4.3v-52.6a12.23,12.23,0,0,0-2.57-7.51s-53.14-68.71-56.76-73.73c-4.06-5.63-5.1-7.8-5.1-13.33Z"/><path class="cls-3" d="M305.68,899.41V839.28a4.3,4.3,0,0,0-4.29-4.29H292.8a4.3,4.3,0,0,0-4.3,4.29v206.16a4.31,4.31,0,0,0,4.3,4.3h8.59a4.31,4.31,0,0,0,4.29-4.3V985.31h47.25v85.9a21.48,21.48,0,0,1-21.48,21.47H262.73a21.47,21.47,0,0,1-21.47-21.47V813.52A21.48,21.48,0,0,1,262.73,792h68.72a21.48,21.48,0,0,1,21.48,21.48v85.89Z"/><path class="cls-3" d="M459.16,912.3v43H416.11v94.49h51.64v42.94H368.87V792h98.88v43H416.11V912.3Z"/><path class="cls-3" d="M90.29,912.3v43H47.24v94.49H98.88v42.94H0V792H98.88v43H47.24V912.3Z"/><path class="cls-3" d="M883.16,792c12.89,0,21.48,8.59,21.48,21.48v257.69c0,12.88-8.59,21.47-21.48,21.47H814.44c-12.88,0-21.47-8.59-21.47-21.47V813.52c0-12.89,8.59-21.48,21.47-21.48Zm-25.77,47.24A4.62,4.62,0,0,0,853.1,835h-8.59a4.62,4.62,0,0,0-4.3,4.29v206.16a4.62,4.62,0,0,0,4.3,4.3h8.59a4.62,4.62,0,0,0,4.29-4.3Z"/><path class="cls-3" d="M773.13,792v300.64H725.89V792Z"/><path class="cls-3" d="M1036.14,959.54v133.14H988.9V963.84a4.31,4.31,0,0,0-4.3-4.3H971.72v133.14H924.47V792h90.2a21.48,21.48,0,0,1,21.47,21.48V914.45c0,12.88-8.59,21.47-21.47,21.47v2.15C1027.55,938.07,1036.14,946.66,1036.14,959.54ZM988.9,839.28a4.31,4.31,0,0,0-4.3-4.29H971.72v81.6H984.6a4.31,4.31,0,0,0,4.3-4.29Z"/><polygon class="cls-3" points="530.94 1043.15 530.94 792.04 483.69 792.04 483.69 1092.68 505.56 1092.68 530.94 1043.15"/><polygon class="cls-3" points="534.31 1049.73 512.31 1092.68 582.58 1092.68 582.58 1049.73 534.31 1049.73"/><path class="cls-3" d="M178.07,870.6V792.08h47.24V881a8.66,8.66,0,0,1-.79,3.61l-63.63,121v87.19H113.64V998.4a8.57,8.57,0,0,1,.8-3.62Z"/><path class="cls-3" d="M199.74,946.42l-26.39,50.16,4.72,9v87.19h47.24V998.4a8.71,8.71,0,0,0-.79-3.62Z"/><path class="cls-3" d="M139.14,931.53l26.48-51.69-4.73-9.24V792.08H113.64V881a8.52,8.52,0,0,0,.8,3.61Z"/></g></g></svg>