<svg xmlns="http://www.w3.org/2000/svg" width="700" height="630" viewBox="0 0 700 630"><title>Dynasty Primary</title><path d="M170.75,466.37l4-.39a4.9,4.9,0,0,0,1.47,3,4.44,4.44,0,0,0,3,1,4.59,4.59,0,0,0,3-.84,2.51,2.51,0,0,0,1-2,1.86,1.86,0,0,0-.43-1.23,3.4,3.4,0,0,0-1.48-.89q-.73-.25-3.3-.89a11.2,11.2,0,0,1-4.66-2,5.32,5.32,0,0,1-1.88-4.11,5.25,5.25,0,0,1,.89-2.92,5.54,5.54,0,0,1,2.55-2.07,10.25,10.25,0,0,1,4-.71q3.85,0,5.79,1.69a6,6,0,0,1,2,4.5l-4.13.18a3.5,3.5,0,0,0-1.14-2.26,4.16,4.16,0,0,0-2.61-.69,4.72,4.72,0,0,0-2.82.74,1.49,1.49,0,0,0-.66,1.27,1.57,1.57,0,0,0,.61,1.24,10.85,10.85,0,0,0,3.79,1.37,20,20,0,0,1,4.45,1.47,5.73,5.73,0,0,1,2.26,2.08,6.43,6.43,0,0,1-.16,6.55,5.85,5.85,0,0,1-2.76,2.28,11.56,11.56,0,0,1-4.45.75,8.85,8.85,0,0,1-6-1.79A7.79,7.79,0,0,1,170.75,466.37Z" fill="#fff"/><path d="M251.78,473V452.59h15.15V456h-11v4.53h10.26V464H255.9v5.56h11.42V473Z" fill="#fff"/><path d="M331.72,463a13,13,0,0,1,.93-5.24,9.63,9.63,0,0,1,1.9-2.8,8,8,0,0,1,2.64-1.84,11.23,11.23,0,0,1,4.4-.81,9.6,9.6,0,0,1,7.23,2.8q2.71,2.8,2.71,7.79t-2.69,7.74a10.75,10.75,0,0,1-14.44,0A10.55,10.55,0,0,1,331.72,463Zm4.25-.14a7.66,7.66,0,0,0,1.6,5.26,5.51,5.51,0,0,0,7.79.33l.33-.33a7.81,7.81,0,0,0,1.58-5.33,7.69,7.69,0,0,0-1.54-5.24,5.71,5.71,0,0,0-8.07-.13l-.13.13a7.72,7.72,0,0,0-1.56,5.26Z" fill="#fff"/><path d="M415.94,452.59h4.11v11.07a23.13,23.13,0,0,0,.15,3.42,3.31,3.31,0,0,0,1.26,2,4.39,4.39,0,0,0,2.73.76,4.16,4.16,0,0,0,2.65-.72,2.84,2.84,0,0,0,1.07-1.76,23.1,23.1,0,0,0,.18-3.47v-11.3h4.13v10.73a27.57,27.57,0,0,1-.34,5.2,5.75,5.75,0,0,1-1.23,2.57,6.22,6.22,0,0,1-2.4,1.67,10.46,10.46,0,0,1-3.93.62,11.32,11.32,0,0,1-4.44-.68,6.34,6.34,0,0,1-2.39-1.76,5.63,5.63,0,0,1-1.16-2.27,24.78,24.78,0,0,1-.4-5.19Z" fill="#fff"/><path d="M496.64,473V452.75h4.13v16.83h10.28V473Z" fill="#fff"/><polygon points="354.53 498.42 301.53 600.52 326.78 600.52 379.79 498.42 354.53 498.42"/><polygon points="372.91 525.05 360.26 549.47 386.63 600.52 411.89 600.52 372.91 525.05"/><path d="M580.7,498.41H498.32v3.16a15.26,15.26,0,0,0,15.22,15.22h15.29v83.73h21.84V516.79h30Z"/><path d="M682.88,498.42H656.19l-21.5,37.13H634l-21.5-37.13H585.79s23.35,36.93,37.54,59.26v42.84h21.84V558C659.35,535.63,682.88,498.42,682.88,498.42Z"/><path d="M207.91,498.42H181.22l-21.5,37.13h-.67l-21.5-37.13H110.82s23.35,36.93,37.54,59.26v42.84H170.2V558C184.38,535.63,207.91,498.42,207.91,498.42Z"/><path d="M485.28,541.38H441.11s-3.77.17-3.25-4.3V521s-.2-4.71,5.68-4.17h33.3a15.26,15.26,0,0,0,15.21-15.23v-3.16H431s-12.62-.56-13,10.43V548s-1.18,11.53,11.34,11.82h42.76s4.12-.1,4.52,3.84v14.89s0,3.11-4.14,3.59H418.75V600.5H484.5a14.06,14.06,0,0,0,11.83-11.32V553.41S496.22,541.82,485.28,541.38Z"/><path d="M16.05,498.42v3.16a15.23,15.23,0,0,0,7.56,13.12v26.94H16.55v11s-.11,5.79,7.06,6.24v41.63H45.45V498.42Z"/><path d="M97.84,498.44H50.9v18.44H84.65s4.12-.1,4.52,3.84v52.92c-.46,8.31-7.49,7.76-7.49,7.76H50.9v19.12H97.84c11.24-2.17,11-12,11-12v-78S109.05,500.61,97.84,498.44Z"/><path d="M282.73,498.44H236.36a1.56,1.56,0,0,1-1.33-.74h0a8.73,8.73,0,0,0-7.31-3.91h-12V600.52h19.55V521.59a5.8,5.8,0,0,1,5.84-4.62h28.73a5.8,5.8,0,0,1,5.84,4.62v78.93h19.55v-90.8C292.94,497.71,282.73,498.44,282.73,498.44Z"/><polygon points="505.64 108.38 511.98 45.33 492.87 28.26 433.88 32.04 404.88 17.98 277.75 17.98 248.75 32.04 189.75 28.26 170.64 45.33 176.98 108.38 140.96 200.06 160.59 195.29 177.42 306.38 194.8 293.48 254.76 370.83 260.19 348.02 269.97 352.14 283.44 401.24 310.59 393.86 341.31 427.2 341.31 427.2 341.31 427.2 372.03 393.86 399.19 401.24 412.66 352.14 422.43 348.02 427.86 370.83 487.83 293.48 505.21 306.38 522.04 195.29 541.66 200.06 505.64 108.38"/><polygon points="185.3 50.78 191.47 109.75 161.17 181.04 171.96 178.97 187.11 280.34 195.5 271.62 248.8 337.67 249.09 312.9 201.37 257.1 189.25 174.55 223.75 96.57 188.6 52.37 185.3 50.78" fill="#fff"/><polygon points="258.99 195.79 264 215.85 301.37 230.29 294.58 209.9 258.99 195.79" fill="#fff"/><path d="M497.19,48.81,489,41.73l-58.47,5.34-34.92-15.9H286.93l-34.88,15.9-58.47-5.34-8.24,7.08v2l48.4,23.32L189.25,174.55l12.12,82.55,47.68,55.8V287.69l-34.83-40.6-9-72.16,24.44-55.42,27.13-16.36L231.2,165.3l75.62,29.83,10.78,40.22-8.66,21.17L305.47,245l-54.26-21.55-8.08-31.56-18.67-8.08,7.12,58.88,23.09,20.4,17.51-11.74v55.05l36,38.08,25.59-8.85-29.25-26.36V283.08L341.24,317h0L378,283.11v26.17l-29.25,26.36,25.59,8.85,36-38.08V251.33l17.51,11.74,23.09-20.4,7.14-58.89-18.67,8.08-8.08,31.56L377.05,245l-3.46,11.55-8.66-21.17,10.78-40.22,75.62-29.83L425.7,103.16l27.13,16.36L477.27,175l-9,72.16-34.83,40.6v25.21l47.72-55.8,12.12-82.55L448.79,74.1l48.4-23.32ZM351.85,144.2l-10.6,24.08-10.6-24.09-62.42-23.63L283.83,109l40.9,16.51L322.05,109,280.19,92.84l14.24-10.6,27.27,10.6L319,77l-26.51-10.3,12.27-10.3L341.25,68.8h0l36.51-12.42,12.29,10.25L363.52,77l-2.73,15.91,27.26-10.65,14.24,10.6L360.49,109l-2.73,16.51L398.66,109l15.6,11.51Z" fill="#ac8a00"/><polygon points="497.19 50.78 491.03 109.75 521.33 181.04 510.54 178.97 495.39 280.34 487 271.62 433.7 337.67 433.41 312.9 481.13 257.1 493.25 174.55 458.74 96.57 493.9 52.37 497.19 50.78" fill="#fff"/><polygon points="423.51 195.79 418.49 215.85 381.13 230.29 387.92 209.9 423.51 195.79" fill="#fff"/><polygon points="378.77 366.99 341.25 353.97 303.73 366.99 279.22 341.79 292.51 387.62 315.36 382.63 341.25 409.75 367.14 382.63 389.98 387.62 403.27 341.79 378.77 366.99" fill="#fff"/></svg>