<svg xmlns="http://www.w3.org/2000/svg" width="700" height="630" viewBox="0 0 700 630"><title>Shock Primary</title><path d="M68.45,201.81v.49c0,1.56.44,2.57,2.22,2.57a1.93,1.93,0,0,0,2-2.06c0-1.52-.77-2.08-3-2.85-3-1-4.38-2.27-4.38-5,0-3.25,2-4.94,5.16-4.94,3,0,5.17,1.28,5.17,4.49v.45H72.41c0-1.56-.54-2.47-1.82-2.47a1.72,1.72,0,0,0-1.92,2c0,1,.3,1.65,1.73,2.26L73,197.81c2.53,1.09,3.18,2.39,3.18,4.42,0,3.53-2.15,5.12-5.76,5.12-3.81,0-5.3-1.78-5.3-4.87v-.68Z" fill="#cab64b"/><path d="M113.83,190.34H118L122.4,207H118.9l-.77-3.53h-4.44l-.77,3.53h-3.51Zm.44,10.37h3.29l-1.65-7.5h0Z" fill="#cab64b"/><path d="M160.17,190.34l4.07,11.43h0V190.34h3.09V207h-3.84l-4.12-11.68h0V207h-3.09V190.34Z" fill="#cab64b"/><path d="M240.75,190.34h9.33v2.76h-6V197h5.61v2.76h-5.61V207h-3.37Z" fill="#cab64b"/><path d="M284.29,190.34h6.22c2.76,0,4.44,1.45,4.44,4.3,0,2.22-.89,3.71-2.78,4.12v0c2.29.3,2.64,1.56,2.68,5.1,0,1.75.12,2.67.75,3V207h-3.65a3.29,3.29,0,0,1-.42-1.75l-.09-3.2c0-1.31-.63-2.11-2-2.11h-1.8V207h-3.37Zm3.37,7.29h1.4c1.65,0,2.53-.7,2.53-2.47a2.07,2.07,0,0,0-2.34-2.31h-1.59Z" fill="#cab64b"/><path d="M333.25,190.34h4.16l4.4,16.69H338.3l-.77-3.53h-4.44l-.77,3.53h-3.51Zm.44,10.37H337l-1.65-7.5h0Z" fill="#cab64b"/><path d="M379.59,190.34l4.07,11.43h0V190.34h3.09V207H383l-4.12-11.69h0V207h-3.09V190.34Z" fill="#cab64b"/><path d="M429,196c0-2.47-.49-3.48-2-3.48-1.7,0-2.11,1.7-2.11,6.43,0,5,.7,6,2.15,6,1.22,0,2.1-.63,2.1-4.23h3.37c0,3.6-.89,6.71-5.3,6.71-5,0-5.68-3.6-5.68-8.67s.63-8.68,5.68-8.68c4.82,0,5.19,3.53,5.19,6Z" fill="#cab64b"/><path d="M467.28,207V190.34h3.37V207Z" fill="#cab64b"/><path d="M508.57,201.81v.49c0,1.56.44,2.57,2.22,2.57a1.93,1.93,0,0,0,2-2.06c0-1.52-.77-2.08-3-2.85-3-1-4.37-2.26-4.37-5,0-3.25,2-4.94,5.16-4.94,3,0,5.16,1.28,5.16,4.49v.48h-3.23c0-1.56-.54-2.47-1.83-2.47a1.72,1.72,0,0,0-1.92,1.94c0,1,.3,1.65,1.73,2.26l2.59,1.12c2.53,1.09,3.18,2.39,3.18,4.42,0,3.53-2.15,5.12-5.76,5.12-3.81,0-5.3-1.78-5.3-4.87v-.68Z" fill="#cab64b"/><path d="M557.84,196c0-2.47-.49-3.48-2-3.48-1.7,0-2.11,1.7-2.11,6.43,0,5,.7,6,2.15,6,1.22,0,2.1-.63,2.1-4.23h3.37c0,3.6-.89,6.71-5.3,6.71-5,0-5.68-3.6-5.68-8.67S551,190,556,190c4.82,0,5.16,3.53,5.16,6Z" fill="#cab64b"/><path d="M601.3,190c5,0,5.68,3.6,5.68,8.67s-.63,8.67-5.68,8.67-5.68-3.6-5.68-8.67S596.25,190,601.3,190Zm0,14.87c2,0,2.31-1.7,2.31-6.19s-.32-6.21-2.31-6.21-2.31,1.73-2.31,6.19S599.32,204.87,601.3,204.87Z" fill="#cab64b"/><polygon points="126.14 384.67 126.14 397.1 126.14 409.34 128.58 418.64 131.02 409.34 131.02 397.1 131.02 384.67 128.58 375.36 126.14 384.67" fill="#75787b"/><polygon points="114.73 387 114.73 397.1 114.73 406.99 117.18 414.55 119.62 406.99 119.62 397.1 119.62 387 117.18 379.45 114.73 387" fill="#75787b"/><polygon points="138.36 385.69 138.36 397.1 138.36 408.3 140.8 424.57 143.24 408.3 143.24 397.1 143.24 385.69 140.8 369.43 138.36 385.69" fill="#75787b"/><polygon points="151.39 382.32 151.39 397.1 151.39 411.68 153.83 426.26 156.28 411.68 156.28 397.1 156.28 382.32 153.83 367.73 151.39 382.32" fill="#75787b"/><polygon points="163.6 378.2 163.6 397.1 163.6 415.81 166.05 429.53 168.5 415.81 168.5 397.1 168.5 378.2 166.05 364.47 163.6 378.2" fill="#75787b"/><polygon points="175.82 374.29 175.82 397.1 175.82 419.71 178.27 433.2 180.71 419.71 180.71 397.1 180.71 374.29 178.27 360.79 175.82 374.29" fill="#75787b"/><polygon points="188.05 358.6 188.05 397.1 188.05 435.41 190.49 451.67 192.93 435.41 192.93 397.1 192.93 358.6 190.49 342.33 188.05 358.6" fill="#75787b"/><polygon points="262.98 384.67 262.98 397.1 262.98 409.34 265.43 418.64 267.86 409.34 267.86 397.1 267.86 384.67 265.43 375.36 262.98 384.67" fill="#75787b"/><polygon points="274.38 387 274.38 397.1 274.38 406.99 276.83 414.55 279.27 406.99 279.27 397.1 279.27 387 276.83 379.45 274.38 387" fill="#75787b"/><polygon points="250.76 385.69 250.76 397.1 250.76 408.3 253.2 424.57 255.65 408.3 255.65 397.1 255.65 385.69 253.2 369.43 250.76 385.69" fill="#75787b"/><polygon points="237.72 382.32 237.72 397.1 237.72 411.68 240.17 426.26 242.61 411.68 242.61 397.1 242.61 382.32 240.17 367.73 237.72 382.32" fill="#75787b"/><polygon points="225.51 378.2 225.51 397.1 225.51 415.81 227.95 429.53 230.4 415.81 230.4 397.1 230.4 378.2 227.95 364.47 225.51 378.2" fill="#75787b"/><polygon points="213.29 374.29 213.29 397.1 213.29 419.71 215.74 433.2 218.18 419.71 218.18 397.1 218.18 374.29 215.74 360.79 213.29 374.29" fill="#75787b"/><polygon points="201.08 358.6 201.08 397.1 201.08 435.41 203.52 451.67 205.96 435.41 205.96 397.1 205.96 358.6 203.52 342.33 201.08 358.6" fill="#75787b"/><polygon points="285.78 388.66 285.78 397.1 285.78 405.34 288.23 411.63 290.67 405.34 290.67 397.1 290.67 388.66 288.23 382.36 285.78 388.66" fill="#75787b"/><polygon points="298.01 389.36 298.01 397.1 298.01 404.64 300.44 415.64 302.89 404.64 302.89 397.1 302.89 389.36 300.44 378.35 298.01 389.36" fill="#75787b"/><polygon points="311.04 387.07 311.04 397.1 311.04 406.93 313.47 416.79 315.92 406.93 315.92 397.1 315.92 387.07 313.47 377.21 311.04 387.07" fill="#75787b"/><polygon points="323.25 384.28 323.25 397.1 323.25 409.72 325.7 419 328.13 409.72 328.13 397.1 328.13 384.28 325.7 375 323.25 384.28" fill="#75787b"/><polygon points="335.47 381.64 335.47 397.1 335.47 412.36 337.91 421.49 340.36 412.36 340.36 397.1 340.36 381.64 337.91 372.52 335.47 381.64" fill="#75787b"/><polygon points="347.69 371.03 347.69 397.1 347.69 422.98 350.13 433.98 352.57 422.98 352.57 397.1 352.57 371.03 350.13 360.02 347.69 371.03" fill="#75787b"/><polygon points="422.62 388.66 422.62 397.1 422.62 405.34 425.06 411.63 427.51 405.34 427.51 397.1 427.51 388.66 425.06 382.36 422.62 388.66" fill="#75787b"/><polygon points="410.4 389.36 410.4 397.1 410.4 404.64 412.85 415.64 415.29 404.64 415.29 397.1 415.29 389.36 412.85 378.35 410.4 389.36" fill="#75787b"/><polygon points="397.37 387.07 397.37 397.1 397.37 406.93 399.82 416.79 402.26 406.93 402.26 397.1 402.26 387.07 399.82 377.21 397.37 387.07" fill="#75787b"/><polygon points="385.16 384.28 385.16 397.1 385.16 409.72 387.6 419 390.05 409.72 390.05 397.1 390.05 384.28 387.6 375 385.16 384.28" fill="#75787b"/><polygon points="372.94 381.64 372.94 397.1 372.94 412.36 375.38 421.49 377.82 412.36 377.82 397.1 377.82 381.64 375.38 372.52 372.94 381.64" fill="#75787b"/><polygon points="360.72 371.03 360.72 397.1 360.72 422.98 363.16 433.98 365.61 422.98 365.61 397.1 365.61 371.03 363.16 360.02 360.72 371.03" fill="#75787b"/><polygon points="435.65 391.36 435.65 397.1 435.65 402.64 438.1 406.9 440.54 402.64 440.54 397.1 440.54 391.36 438.1 387.1 435.65 391.36" fill="#75787b"/><polygon points="447.88 391.83 447.88 397.1 447.88 402.17 450.32 409.61 452.76 402.17 452.76 397.1 452.76 391.83 450.32 384.39 447.88 391.83" fill="#75787b"/><polygon points="460.91 390.28 460.91 397.1 460.91 403.71 463.35 410.38 465.8 403.71 465.8 397.1 465.8 390.28 463.35 383.61 460.91 390.28" fill="#75787b"/><polygon points="473.12 388.39 473.12 397.1 473.12 405.6 475.57 411.88 478.01 405.6 478.01 397.1 478.01 388.39 475.57 382.12 473.12 388.39" fill="#75787b"/><polygon points="485.34 386.61 485.34 397.1 485.34 407.39 487.78 413.56 490.23 407.39 490.23 397.1 490.23 386.61 487.78 380.44 485.34 386.61" fill="#75787b"/><polygon points="497.56 379.43 497.56 397.1 497.56 414.56 500 422.01 502.44 414.56 502.44 397.1 502.44 379.43 500 371.99 497.56 379.43" fill="#75787b"/><polygon points="572.5 391.36 572.5 397.1 572.5 402.64 574.94 406.9 577.38 402.64 577.38 397.1 577.38 391.36 574.94 387.1 572.5 391.36" fill="#75787b"/><polygon points="560.27 391.83 560.27 397.1 560.27 402.17 562.72 409.61 565.16 402.17 565.16 397.1 565.16 391.83 562.72 384.39 560.27 391.83" fill="#75787b"/><polygon points="547.24 390.28 547.24 397.1 547.24 403.71 549.69 410.38 552.13 403.71 552.13 397.1 552.13 390.28 549.69 383.61 547.24 390.28" fill="#75787b"/><polygon points="535.03 388.39 535.03 397.1 535.03 405.6 537.47 411.88 539.92 405.6 539.92 397.1 539.92 388.39 537.47 382.12 535.03 388.39" fill="#75787b"/><polygon points="522.81 386.61 522.81 397.1 522.81 407.39 525.25 413.56 527.7 407.39 527.7 397.1 527.7 386.61 525.25 380.44 522.81 386.61" fill="#75787b"/><polygon points="510.59 379.43 510.59 397.1 510.59 414.56 513.03 422.01 515.48 414.56 515.48 397.1 515.48 379.43 513.03 371.99 510.59 379.43" fill="#75787b"/><polygon points="65.05 391.36 65.05 397.1 65.05 402.64 67.5 406.9 69.94 402.64 69.94 397.1 69.94 391.36 67.5 387.1 65.05 391.36" fill="#75787b"/><polygon points="77.27 391.83 77.27 397.1 77.27 402.17 79.71 409.61 82.16 402.17 82.16 397.1 82.16 391.83 79.71 384.39 77.27 391.83" fill="#75787b"/><polygon points="90.3 390.28 90.3 397.1 90.3 403.71 92.75 410.38 95.19 403.71 95.19 397.1 95.19 390.28 92.75 383.61 90.3 390.28" fill="#75787b"/><polygon points="102.52 388.39 102.52 397.1 102.52 405.6 104.96 411.88 107.41 405.6 107.41 397.1 107.41 388.39 104.96 382.12 102.52 388.39" fill="#75787b"/><polygon points="607.21 395.47 583.08 395.47 583.08 398.73 607.21 398.73 622.18 397.1 607.21 395.47" fill="#75787b"/><polygon points="17 397.1 31.96 398.73 56.09 398.73 56.09 395.47 31.96 395.47 17 397.1" fill="#75787b"/><path d="M219.72,269.33H174.37v-43h-39V348.88h39.78V300.31h44.55v48.57h39V226.37H219.72Z" fill="#fff"/><path d="M689.6,397.45c-14.22-19.89-62.5-89.54-76.74-110,14.27-20.45,28.48-40.41,42.72-61.1H608c-14.2,20.65-28.67,40.55-42.2,60.74V226.37h-39V348.88h39V288c14.32,20.85,62,89.56,76.22,109.48Z" fill="#fff"/><path d="M368.68,226.37h-72A31.64,31.64,0,0,0,265.06,258h0v59.27a31.64,31.64,0,0,0,31.64,31.6h72a31.64,31.64,0,0,0,31.64-31.64h0V258A31.64,31.64,0,0,0,368.68,226.37Zm-5.76,79.73a10.17,10.17,0,0,1-10.17,10.17H309.46a10.17,10.17,0,0,1-10.18-10.17s0,0,0,0V268.37a10.17,10.17,0,0,1,10.17-10.17h43.3a10.17,10.17,0,0,1,10.17,10.17Z" fill="#fff"/><path d="M405.88,257.76V317.6a31,31,0,0,0,30.7,31.28h84.68V317.07h-70a10.41,10.41,0,0,1-10.4-10.22V268.55a10.53,10.53,0,0,1,10.4-10.36h70V226.37H437.14a31.11,31.11,0,0,0-31.26,31Q405.88,257.55,405.88,257.76Z" fill="#fff"/><path d="M38.7,226.34c-11.34.4-20.2,7.57-23.31,19.16a59.12,59.12,0,0,0-.51,28.65c2.58,11.16,9.06,18.46,20.51,21.4l51.37,15.16h0a4.29,4.29,0,0,1,1.7,3.6,4.24,4.24,0,0,1-1.83,3.63,2.35,2.35,0,0,1-1.38.45H15.65v30.46c36.57,0,87.68,0,87.68,0,12.91,0,21.56-7.29,23.81-18.34a100.09,100.09,0,0,0,1.61-22c-.44-18.88-8.18-25.36-25.52-30.16-14.56-4-29.17-7.9-43.77-11.91a14.64,14.64,0,0,1-5.31-2.29,4.26,4.26,0,0,1-1.78-3.59c0-2.26,1.52-4.12,3.4-4.12H129V226.37Z" fill="#fff"/></svg>