<svg xmlns="http://www.w3.org/2000/svg" width="700" height="630" viewBox="0 0 700 630"><title>Mayhem Primary</title><path d="M150.4,411.75h11.16v2.69h-8.4V421h7.14v2.61h-7.14v7.32h-2.8Z" fill="#af272f"/><path d="M214,428.2h7.82v2.74H211.16V411.75H214Z" fill="#af272f"/><path d="M281,411.68a9.32,9.32,0,0,1,3.74.76,9.64,9.64,0,0,1,5.83,8.92,9.44,9.44,0,0,1-.75,3.74,9.56,9.56,0,0,1-5.08,5.13A9.32,9.32,0,0,1,281,431a9.21,9.21,0,0,1-3.73-.76,9.6,9.6,0,0,1-5.07-5.13,9.44,9.44,0,0,1-.75-3.74,9.61,9.61,0,0,1,5.82-8.92A9.23,9.23,0,0,1,281,411.68Zm0,16.57a6.21,6.21,0,0,0,2.58-.55,6.76,6.76,0,0,0,2.07-1.48,7.16,7.16,0,0,0,0-9.83,6.67,6.67,0,0,0-2.07-1.5,6.21,6.21,0,0,0-2.58-.55,6.12,6.12,0,0,0-2.56.55,6.71,6.71,0,0,0-2.07,1.5,7.19,7.19,0,0,0-1.95,4.94,7.05,7.05,0,0,0,1.95,4.9,6.8,6.8,0,0,0,2.07,1.48,6.12,6.12,0,0,0,2.56.57Z" fill="#af272f"/><path d="M353.34,420.44a6.77,6.77,0,0,1-1,2.07,6.59,6.59,0,0,1-1.76,1.59.31.31,0,0,1-.13.08.32.32,0,0,0-.13.08l3.38,6.64h-3l-3-5.78-.63.08H343v5.68h-2.8V411.73h6.21a7.86,7.86,0,0,1,4.14,1.13,6.52,6.52,0,0,1,2.85,3.74l.05.24a1.67,1.67,0,0,0,.08.24v.13a1,1,0,0,1,.06.29v.31h0a2,2,0,0,1,0,.31v.74a2,2,0,0,1,0,.31v.35a1.32,1.32,0,0,1-.06.3v.1A2.38,2.38,0,0,0,353.34,420.44Zm-6.62,2.38a3.44,3.44,0,0,0,1.58-.36,4.14,4.14,0,0,0,1.24-1,4.92,4.92,0,0,0,.84-1.38,4.28,4.28,0,0,0,0-3.21,4.66,4.66,0,0,0-.84-1.38,4.2,4.2,0,0,0-1.24-1,3.44,3.44,0,0,0-1.58-.36H343v8.63Z" fill="#af272f"/><path d="M403.22,411.75H406v19.17h-2.8Z" fill="#af272f"/><path d="M462.33,411.75a8.73,8.73,0,0,1,3.62.76,9.32,9.32,0,0,1,2.94,2.07,9.91,9.91,0,0,1,2,3,9.5,9.5,0,0,1,.74,3.73,9.81,9.81,0,0,1-.7,3.73,9.48,9.48,0,0,1-1.95,3,9.24,9.24,0,0,1-2.94,2.07,8.94,8.94,0,0,1-3.69.76h-6.69V411.75Zm-.31,16.7a6.39,6.39,0,0,0,2.69-.56,6.54,6.54,0,0,0,2.07-1.53,7.05,7.05,0,0,0,1.39-2.27,7.93,7.93,0,0,0,0-5.53,6.92,6.92,0,0,0-1.4-2.27,6.69,6.69,0,0,0-2.13-1.53,6.33,6.33,0,0,0-2.66-.56H458.4v14.24Z" fill="#af272f"/><path d="M521.23,430.89l7.86-19.16,7.82,19.17h-2.85l-.58-1.51h-8.76l-.6,1.51Zm4.39-4h6.85l-3.38-8.82Z" fill="#af272f"/><path d="M227.55,448.36H210.4l-34.68,85v39h12.65l4.06-10.24h53.25l3.88,10.24h28.59ZM202.14,537,219,493.78,235.82,537Z"/><polygon points="427.05 527.41 427.05 448.36 402.17 448.36 402.17 478.2 369.27 486.17 369.27 448.36 341.74 448.36 341.74 558.66 347.36 572.24 369.27 572.24 369.27 515.34 361.86 513.49 369.27 511.69 369.27 511.69 402.17 503.74 402.17 503.75 402.25 503.74 402.17 507.41 402.17 527.16 402.06 527.16 402.17 527.39 402.17 572.24 402.17 572.24 402.17 572.67 422.08 585.69 427.07 585.55 427.07 527.41 427.05 527.41"/><polygon points="642.97 453.34 642.84 448.36 628.79 448.36 607.57 448.36 606.63 448.36 601.02 460.16 573.67 517.71 546.12 460 540.56 448.36 518.35 448.36 518.46 519.18 518.47 530.18 518.47 618.7 523.99 618.85 533.48 612.65 546.01 604.44 546.01 530.18 546.02 521.89 573.69 580.88 601.11 522.1 601.13 530.18 601.13 580.25 623.15 594.66 628.66 594.5 628.66 584.51 628.66 530.18 628.68 520.13 628.75 473.24 629.95 473.24 642.97 453.34"/><polygon points="147.96 448.71 142.41 460.35 114.86 518.07 92.75 471.55 81.9 448.71 59.73 448.71 46.63 448.71 46.5 453.69 59.52 473.6 59.78 473.6 59.85 520.48 59.86 530.53 59.86 584.86 59.86 594.85 65.38 595.01 87.4 580.6 87.4 530.53 87.41 522.46 114.84 581.24 142.5 522.25 142.52 530.53 142.52 604.8 155.05 613.01 164.53 619.21 170.05 619.05 170.05 530.53 170.07 519.53 170.18 448.71 147.96 448.71"/><polygon points="460.42 516.51 454.16 513.23 493.3 513.23 496.96 488.86 460.42 488.86 460.42 473.19 505.19 473.19 508.86 448.36 435.15 448.36 435.15 558.66 440.81 572.39 510.95 572.39 510.95 547.27 460.42 547.27 460.42 516.51"/><polygon points="320.08 448.36 298.8 499.86 287.86 473.36 287.9 473.36 287.53 472.58 277.52 448.36 240.76 448.36 240.62 453.34 253.64 473.24 258.25 473.25 284.95 531.39 284.95 558.49 290.67 572.39 312.49 572.39 312.49 531.39 335.11 482.18 335.11 448.36 320.08 448.36"/><path d="M520.27,47.16a31.91,31.91,0,0,0,6.09-10.7C527.87,30.93,528.57,17,514.59,13a22,22,0,0,1,.94,20.71,14,14,0,0,0-2.78-5.27c2.07,7.25-.23,14.87-5.05,20.86,3.66-6.21,5.18-15.27-2.26-26.63-3.57-5.83-17.61-16.63-34.55-9,4.69,1,19.38,3.76,21.75,15.21A24,24,0,0,0,484.73,27,27,27,0,0,1,501.1,47.11c-3-7.48-9.32-14.8-21.52-14.92-7.63.68-20.94,6.21-23,27.31,2.93-3.87,7.65-15,21.46-12.26-3.11,1-5.05,3.56-4.79,7.47,9.32-8,20.87-6.32,27.11-.53-42.25,5.37-70.95,39.56-75.6,45.37L398.07,82a1.16,1.16,0,0,0-1.61.33l-11.73,17.94q-3.49-1-7.05-1.92a152.65,152.65,0,0,0-62.19-2.16,151.05,151.05,0,0,0-57.9,22.17,157.53,157.53,0,0,0-69.75,159.21,154.89,154.89,0,0,0,22,58.19,159.08,159.08,0,0,0,41.06,43.81q4.28,3.11,8.75,5.85h0c1.16.71,2.33,1.41,3.51,2.07l4.73.1.72-.36,32.16-16.28V241.21l40.84,67.72,40.83-67.69V371l32.16,16.28.72.36,5.39-.11c1-.57,1.92-1.16,2.86-1.75h0c.59-.37,1.2-.71,1.79-1.1a158.72,158.72,0,0,0,48-217.18,163.48,163.48,0,0,0-20.25-25.89l10.15-15.53a1.16,1.16,0,0,0-.33-1.61L436.4,107.08c28.9-36.95,66.05-45.38,66.05-45.38-1.93,10-6.21,17.39-18.24,18.64,1.15,1.49,4.49,2.15,8,.81-2.42,10.85-22.78,10.2-28.44,9.57,19.41,15.21,38.32,5.25,41.42,2.57,10.18-10.9,8.41-22.67,4.09-31.36,5.47,8.28,6.91,19.2,2.14,30a27.58,27.58,0,0,0,5.18-7.82c4.28,4.2-3.26,25.39-6.45,29.89,20.29-6.9,22.36-26.8,22-34.67-2.62-15.39-11-21.87-19-24.21,8.76,1.26,17,6.21,21,13.93a7.7,7.7,0,0,0-2.21-6.93C542,63,544.81,76.74,545.7,80.67,555.79,52.22,525.64,46.72,520.27,47.16ZM227.26,271a124,124,0,0,1,1.23-48.13,127.38,127.38,0,0,1,11.72-31.7q1.72-3.23,3.62-6.35,1.35-2.21,2.8-4.37c1.3-1.94,2.68-3.8,4.14-5.64l8.44,10h.37l.09,122.55v28.79A126.27,126.27,0,0,1,244.06,316,122.32,122.32,0,0,1,227.26,271Zm163.45-115L374.5,182.47,341.64,235.9l-32.85-53.48-16.21-26.34H268.77a119.82,119.82,0,0,1,9.91-7.46,107.85,107.85,0,0,1,42.78-16.87,109.36,109.36,0,0,1,46.14,2.07,116.86,116.86,0,0,1,40.84,19.75c1.09.82,2.15,1.68,3.21,2.54Zm46.72,28.8c.63,1,1.27,1.92,1.88,2.9,1,1.53,1.85,3.11,2.73,4.67A124.76,124.76,0,0,1,456.1,232.9a123.11,123.11,0,0,1-19.51,89.91,116,116,0,0,1-12.93,15.53V309.56l.09-124.79h.37l7.25-8.51q3.15,4.14,6,8.57Z"/></svg>