<svg xmlns="http://www.w3.org/2000/svg" viewBox="0 0 354.6 239.13"><defs><style>.cls-1{fill:#fff;}.cls-2{fill:#1c2b39;}.cls-3{fill:#59cbe8;}.cls-4{fill:#ff8200;}</style></defs><title>Asset 1london</title><g id="Layer_2" data-name="Layer 2"><g id="Layer_1-2" data-name="Layer 1"><path class="cls-1" d="M8.62,228.33c0-.42-.29-.66-.82-.66H4.31c-.53,0-.82.23-.82.66v1.32c0,.43.29.56.82.66l4.5.77c1.89.33,3.49,1.24,3.49,2.79v2.52c0,1.63-1.41,2.75-3.44,2.75H3.44c-2,0-3.44-1.12-3.44-2.75V234.6H3.39v1.24c0,.42.29.66.82.66H8c.53,0,.82-.23.82-.66v-1.47c0-.43-.29-.56-.82-.66l-4.5-.77C1.6,232.61,0,231.7,0,230.15v-2.36C0,226.16,1.4,225,3.44,225H8.57c2,0,3.44,1.12,3.44,2.75v1.63H8.62Z"/><rect class="cls-1" x="103.41" y="225.11" width="3.48" height="13.94"/><polygon class="cls-1" points="153.77 227.71 153.77 239.06 150.28 239.06 150.28 227.71 145.73 227.71 145.73 225.11 158.32 225.11 158.32 227.71 153.77 227.71"/><polygon class="cls-1" points="197.16 225.11 208.56 225.11 208.56 227.75 200.64 227.75 200.64 230.73 208.53 230.73 208.53 233.36 200.64 233.36 200.64 239.06 197.16 239.06 197.16 225.11"/><rect class="cls-1" x="247.51" y="225.11" width="3.49" height="13.94"/><polygon class="cls-1" points="354.6 225.11 354.6 227.75 346.69 227.75 346.69 230.61 354.2 230.61 354.2 233.25 346.69 233.25 346.69 236.42 354.6 236.42 354.6 239.06 343.2 239.06 343.2 225.11 354.6 225.11"/><path class="cls-1" d="M60.84,225.11H51.93v5.18h3.48v-2.54H60c.53,0,.82.23.82.66v2.44c0,.43-.29.66-.82.66h-8v7.55h3.48v-4.92h5.42c2,0,3.44-1.12,3.44-2.75v-3.52c0-1.63-1.4-2.75-3.44-2.75"/><path class="cls-1" d="M301.09,233.77a2.73,2.73,0,0,0,2.37-2.63v-3.27c0-1.63-1.4-2.75-3.44-2.75h-8.89v5h3.49v-2.33h4.53c.53,0,.82.23.82.66v2.23c0,.43-.29.66-.82.66h-8v7.77h3.49v-5.17h2.81l2.81,5.17H304Z"/><path class="cls-2" d="M143.43,164.35a129.06,129.06,0,0,0,33.77,27.6,129.48,129.48,0,0,0,33.73-27.5,331.9,331.9,0,0,0-67.5-.1"/><path class="cls-2" d="M262.84,84a215.65,215.65,0,0,0,5.21-64.2l-.1-.76-.27-.18C244.84,7.27,212.78,0,176.92,0S109.46,7.25,86.62,18.83l-.06,1A215.16,215.16,0,0,0,91.65,84c13.07,56.95,46.34,102.28,85.53,123.67C216.37,186.26,249.77,141,262.84,84m-85,110.75-.67.37-.67-.37c-17.23-9.41-33.19-24.14-46.17-42.6a188.72,188.72,0,0,1-28.89-65.85A188.29,188.29,0,0,1,97,30.12l.09-1.64.72-.36c21-10.66,49.11-16.53,79.14-16.53,30.29,0,58.54,5.88,79.54,16.57l.14.08.77.51.18,1.37A188.47,188.47,0,0,1,253,86.36a188.19,188.19,0,0,1-28.94,65.83c-13,18.44-29,33.16-46.23,42.58"/><path class="cls-3" d="M252.57,67.83c-20.6-8.14-46.83-13-75.63-13-28.32,0-53.92,4.74-74.28,12.64l-1.66.66c.1.78.22,1.56.34,2.34q1.12,7.63,2.87,15.27a194.72,194.72,0,0,0,9.49,30.05q1.81,4.44,3.82,8.72a167.85,167.85,0,0,0,25.91,39.88,331.9,331.9,0,0,1,67.5.1,167.64,167.64,0,0,0,26-39.94q2-4.29,3.84-8.74a193.9,193.9,0,0,0,9.5-30q1.91-8.34,3.09-16.6c0-.3.09-.61.13-.91l-1-.38"/><path class="cls-4" d="M257.6,30.12l-.18-1.37-.77-.51-.14-.08c-21-10.68-49.26-16.57-79.54-16.57-30,0-58.14,5.87-79.14,16.53l-.72.36L97,30.12a188.26,188.26,0,0,0,4.45,56.21,188.75,188.75,0,0,0,28.89,65.85c13,18.46,28.94,33.19,46.17,42.6l.67.37.67-.37c17.24-9.42,33.23-24.14,46.23-42.58A188.17,188.17,0,0,0,253,86.36a188.5,188.5,0,0,0,4.56-56.24m-4,38,0,.14c0,.3-.09.61-.13.91q-1.18,8.26-3.09,16.6a193.94,193.94,0,0,1-9.5,30q-1.82,4.45-3.84,8.74a167.67,167.67,0,0,1-26,39.94,129.46,129.46,0,0,1-33.73,27.5,129,129,0,0,1-33.77-27.6,167.81,167.81,0,0,1-25.91-39.87q-2-4.28-3.82-8.72A194.64,194.64,0,0,1,104.2,85.7q-1.75-7.64-2.87-15.27c-.11-.78-.23-1.56-.34-2.34l0-.24A181.16,181.16,0,0,1,99.81,30.3v-.05C120.35,20,147.71,14.39,177,14.39c29.65,0,57.27,5.7,77.85,16a179.25,179.25,0,0,1-1.27,37.64"/><path class="cls-1" d="M254.82,30.44c-20.58-10.35-48.2-16-77.85-16-29.26,0-56.62,5.63-77.16,15.86v.05A181.16,181.16,0,0,0,101,67.85l0,.24,1.66-.66c20.36-7.9,46-12.64,74.28-12.64,28.8,0,55,4.9,75.63,13l1,.38,0-.14a179.26,179.26,0,0,0,1.27-37.64"/><path class="cls-4" d="M186.16,104.51a8.74,8.74,0,1,0-8.76,8.69,8.71,8.71,0,0,0,8.76-8.69"/><polygon class="cls-2" points="204.23 94.34 229.63 93.39 229.63 92.22 209.34 91.47 204.23 94.34"/><polygon class="cls-2" points="145.52 91.45 124.86 92.22 124.86 93.39 150.73 94.36 145.52 91.45"/><path class="cls-2" d="M202.22,118.11c-6.87.44-6.89.59-11.45-4.53a5.27,5.27,0,0,1-1.12-2.79,44.88,44.88,0,0,1-.41-4.9v-.24l2.18-1.46v-3l-3.89,2.35c0,.31.19.63.19.94s0,.64,0,1c0,.1,0,.2,0,.29s0,.44-.09.66,0,.21-.05.31-.11.47-.18.69c0,.07,0,.14-.06.21-.09.28-.19.55-.31.83l-.15.32c-.08.16-.15.33-.24.49l-.2.36-.25.4-.24.37-.26.34c-.18.24-.38.47-.58.7l-.2.22-.42.41-.18.16a10.48,10.48,0,0,1-2.38,1.6l-.12.06-.65.28.92,16.83,15-1.95q13.52-1.48,27-3l12.83-1.5q2-4.29,3.84-8.74c-12.86.76-25.73,1.52-38.59,2.33m25,6.67h0a2.53,2.53,0,0,1-1.32-.43,4.75,4.75,0,0,1-.57-.42c-.14-.12-.28-.25-.41-.38a3.25,3.25,0,0,1-.76-1.3,3.61,3.61,0,0,1-.16-.77c0-.11,0-.23,0-.34a3.31,3.31,0,0,1,3.24-3.27h0a3.46,3.46,0,0,1,0,6.91"/><path class="cls-2" d="M171.55,113.1l-.06,0c-.26-.18-.51-.36-.75-.57s-.52-.45-.76-.7a10.42,10.42,0,0,1-3-7.51c0-.24.38-.47.39-.71l-4.3-2.62v3.23l2.91,1.59v.11a45.36,45.36,0,0,1-.6,4.9,5.39,5.39,0,0,1-1.22,2.79c-4.56,5.12-4.62,5-11.49,4.53-13-.82-26-1.58-39-2.35q1.81,4.44,3.83,8.72L130.7,126q16.78,2,33.58,3.77l.24,0,7.91,1,.89-16.76h0a10.43,10.43,0,0,1-1.77-1m-41.06,9.79a3.61,3.61,0,0,1-1.05,1.26,3,3,0,0,1-1.81.62h0a3.51,3.51,0,0,1-2.3-1.23,3.44,3.44,0,0,1-.94-2.41,3.31,3.31,0,0,1,3.24-3.27h0a3.43,3.43,0,0,1,3.21,3.47,3.5,3.5,0,0,1-.38,1.55"/><path class="cls-2" d="M177.4,114.9a10.43,10.43,0,0,1-2.4-.29l-1.58,29.72a14.73,14.73,0,0,0,3.87,9.23,13.84,13.84,0,0,0,3.86-8.92l-1.64-30a10.49,10.49,0,0,1-2.11.21"/><path class="cls-2" d="M187.51,101.79l24.79-13.94A16.69,16.69,0,0,0,218,80.62q.25-.62.45-1.26a16.25,16.25,0,0,0-10.28,1.93l-6.56,4.66L185.25,97.58a10.42,10.42,0,0,1,2.26,4.2"/><path class="cls-2" d="M142.54,87.85l24.78,13.94a10.38,10.38,0,0,1,2.26-4.2l-13-9.26-9.91-7a16.25,16.25,0,0,0-10.28-1.93,16.26,16.26,0,0,0,1.16,2.8,17.59,17.59,0,0,0,5,5.69"/><path class="cls-2" d="M175,94.31a10.37,10.37,0,0,1,1.68-.26l.71,0h.12A10.41,10.41,0,0,1,184,96.38l7.84-5.57-4.63-.17L184,90.52l-4.37-7.74-1.67-20.93h-1l-1.67,20.93-4.36,7.75-6.8.24-1.1,0,7.85,5.57A10.49,10.49,0,0,1,175,94.31"/><path class="cls-2" d="M127.63,118.84a2.31,2.31,0,0,0-.79,4.48,2.34,2.34,0,0,0,.54.13l.26,0a2.34,2.34,0,0,0,2.31-2.31c0-.07,0-.14,0-.21a2.31,2.31,0,0,0-2.3-2.1"/><path class="cls-2" d="M227.2,118.84a2.31,2.31,0,0,0-2.23,1.72,2.27,2.27,0,0,0-.07.45s0,.1,0,.15a2.31,2.31,0,0,0,2,2.29l.26,0h.19a2.31,2.31,0,0,0-.19-4.61"/><path class="cls-2" d="M123.64,49.54c-3.71.94-7.4,2-11,3.15V31c-2.09.66-3.14,1-5.22,1.71V59.45c5.36-1.82,10.78-3.47,16.27-4.86Z"/><path class="cls-2" d="M131.69,52.84c3.57-.77,5.36-1.12,9-1.74a6.15,6.15,0,0,0,5.3-6.12V28.48c0-3.12-2.17-5-5.3-4.43-3.59.62-5.38,1-9,1.74a6.6,6.6,0,0,0-5.25,6.48v16.5c0,3.12,2.14,4.75,5.25,4.07m.07-20.75A1.45,1.45,0,0,1,133,30.55c2.51-.53,3.76-.77,6.28-1.22.82-.15,1.27.22,1.27,1V44.79a1.4,1.4,0,0,1-1.27,1.49c-2.52.45-3.77.69-6.28,1.22-.82.17-1.26-.18-1.26-1Z"/><path class="cls-2" d="M156.28,30.59q5,8.73,10,17.5c2.33-.12,3.5-.16,5.84-.22V21.12c-2,0-3.05.09-5.08.18V39.55Q162.05,30.76,157,22c-2.33.22-3.49.35-5.81.63V49.4c2-.25,3-.36,5.06-.55Z"/><path class="cls-2" d="M197.49,43.48V27.28a5.55,5.55,0,0,0-5.34-5.71q-7-.49-14.12-.51V47.82q7.07,0,14.12.51c3.16.22,5.34-1.72,5.34-4.84m-6.69-.3c-2.94-.18-4.4-.25-7.34-.33V26.2c2.94.08,4.41.15,7.34.33a1.23,1.23,0,0,1,1.28,1.35V42a1.07,1.07,0,0,1-1.28,1.18"/><path class="cls-2" d="M207.46,50.08c3.61.51,5.41.8,9,1.46,3.12.58,5.27-1.11,5.27-4.24V30.81a6.36,6.36,0,0,0-5.27-6.32c-3.59-.66-5.39-1-9-1.46a4.35,4.35,0,0,0-5.32,4.59v16.5a5.93,5.93,0,0,0,5.32,6m1.35-21.81c2.53.37,3.79.58,6.3,1a1.4,1.4,0,0,1,1.27,1.49V45.21c0,.82-.45,1.18-1.27,1-2.52-.45-3.78-.65-6.3-1a1.35,1.35,0,0,1-1.27-1.45V29.36c0-.82.45-1.2,1.27-1.08"/><path class="cls-2" d="M231.91,36.59q4.9,10.49,9.69,21c2.26.7,3.38,1.07,5.62,1.84V32.7c-2-.67-2.93-1-4.89-1.61V49.33q-4.79-10.55-9.68-21.06c-2.28-.6-3.42-.89-5.71-1.43V53.6c2,.47,3,.72,5,1.24Z"/></g></g></svg>