<svg xmlns="http://www.w3.org/2000/svg" width="700" height="630" viewBox="0 0 700 630"><title>Uprising Primary</title><path d="M232.82,401.46a5.92,5.92,0,0,0,1.3-4v-6.31c0-4.78-2.43-7.21-7.21-7.21h-25.4l3.13,7.07h0V420.6h22.71c4.78,0,7.11-2.36,7.11-7.21v-8A4.9,4.9,0,0,0,232.82,401.46ZM212.09,391h13.33c1.18,0,1.33,0,1.33,1.48v5.17a2.07,2.07,0,0,1-.07.68,2.18,2.18,0,0,1-1.05.15H212.12Zm0,22.48V405H225.6a3.07,3.07,0,0,1,1.27.15,1.9,1.9,0,0,1,.12.89V412c0,1.1-.18,1.3-.18,1.3s-.21.18-1.3.18Z" fill="#f2df00"/><path d="M282.52,384H266.23c-4.78,0-7,2.34-7,7.41v21.91c0,3.15.73,7.41,7,7.41h16.29c4.78,0,7-2.34,7-7.41V391.36C289.52,386.26,287.3,384,282.52,384Zm-.46,8.65v19.64c0,1,0,1.23-1.48,1.23H268c-1.14,0-1.18,0-1.18-1.23V392.53c0-1.48.09-1.48,1.18-1.48h12.59c1.41,0,1.48.06,1.48,1.53Z" fill="#f2df00"/><path d="M338.63,398.76H323.1a2.35,2.35,0,0,1-.07-.71v-5.92a3.35,3.35,0,0,1,.1-1.05,1.67,1.67,0,0,1,.68-.09h20.62v-7H322.67c-4.84,0-7.11,2.34-7.11,7.41v7.81c0,3.93,2.28,6.27,6.12,6.27h14.81a3.76,3.76,0,0,1,.7,0h0a2,2,0,0,1,.07.68v6.21a3,3,0,0,1-.12,1.07,2,2,0,0,1-.92.12H315.49v7.07H337.6c4.86,0,7.11-2.34,7.11-7.41V405a5.72,5.72,0,0,0-6.09-6.21Z" fill="#f2df00"/><polygon points="368.63 383.92 368.63 391 377.97 391 377.97 420.55 385.45 420.55 385.45 391 394.82 391 394.82 383.92 368.63 383.92" fill="#f2df00"/><path d="M440.92,384H424.62c-4.78,0-7,2.34-7,7.41v21.91c0,3.15.73,7.41,7,7.41h16.29c6.28,0,7-4.21,7-7.41V391.36C447.92,386.26,445.7,384,440.92,384Zm-2,7.07c1.48,0,1.48.1,1.48,1.58v19.64c0,1,0,1.23-1.48,1.23H426.31c-1.14,0-1.18,0-1.18-1.23V392.53c0-1.48.09-1.48,1.18-1.48Z" fill="#f2df00"/><polygon points="496.88 383.92 496.88 406.64 479.13 383.92 472.54 383.92 472.54 420.55 479.71 420.55 479.71 396.42 498.89 420.55 504.09 420.55 504.09 383.92 496.88 383.92" fill="#f2df00"/><path d="M641.53,476l15.24,24.63v11.85l-5.14,5.12-29.45.09h0l-5.48-5.5V456.91l5.44-5.63H666l15.23-24.63H608.35l-18.86,19.8v80.78l14.6,15.14h65.29L684,527.29V476Z" fill="#fff"/><polygon points="93.68 426.64 93.68 512.03 93.73 517.7 59.64 517.7 53.53 511.02 53.53 426.64 16.9 426.64 26.36 441.95 26.36 527.23 41 542.36 106.24 542.36 120.86 527.23 120.86 446.44 102.04 426.64 93.68 426.64" fill="#fff"/><polygon points="322.08 441.91 332.52 453.03 332.52 542.36 355.96 542.39 355.96 441.91 322.08 441.91" fill="#fff"/><polygon points="448.17 441.91 458.6 453.03 458.6 542.36 482.05 542.39 482.05 441.91 448.17 441.91" fill="#fff"/><path d="M315.28,491V453.86l-11.21-11.94H219.76l16.84,18v37.5l-11.94,4.44,11.94,15.8v24.68h23.57V515.47l-4.44-1.07,4.44-1.76h0l20-7.82,20.07,37.49h26.66l-26.17-45.64Zm-21.4-14.29-29.62,10.86-4-3.55V466.42h0l-5-3h33.85L294,467.8Z" fill="#fff"/><polygon points="389.77 463 389.77 463 384.71 460.08 391.22 460.08 391.24 460.08 432.95 459.98 443.06 441.91 377.33 441.91 367.67 449.38 367.67 485.49 425.76 502.71 425.78 517.5 423.08 520.78 373.85 520.84 361.51 542.39 436.24 542.3 447.11 531.03 447.11 487.24 389.8 470.25 389.77 463" fill="#fff"/><polygon points="577.64 530.38 577.64 441.91 554.21 441.91 554.21 495.29 518.25 441.91 488.37 442.07 495.68 452.9 495.68 542.36 519.17 542.36 519.17 487.69 556 542.36 588.87 542.36 577.64 530.38" fill="#fff"/><path d="M209.67,441.9H125.9l16.9,18v37.53l-14.89,5.84L142.8,517.7V530.4l-11.18,11.94h34.07V515.47l-4.44-1.05,12.68-5,45.38-17.91V452.09ZM199.54,476.7l-30.08,10.93-3.87-3.55V466.31l-4.8-2.8h4.8l29.16-.12,4.71,4.34Z" fill="#fff"/><path d="M419.59,64,433,75.18V268.82l-74.39,46.79L280,269.49V100.13l-8-5.82h96.28l7.6,6.87V123.4L338.52,145V112.38H303V257.53l55.65,32.9L411.71,257V165.2l-16-14.41,16-9.84V85.4L388.39,64H228.8l14.57,11.17V288.8l115.24,69.62L469,289V64ZM376.2,237l-17.61,12.49-20-10.83V190.51L332.52,189h-.12L368,167.57h0l8,7.52Z" fill="#fff"/></svg>